%TF.GenerationSoftware,KiCad,Pcbnew,(6.0.6)*%
%TF.CreationDate,2022-08-23T23:43:20+09:00*%
%TF.ProjectId,ebaz_sdr,6562617a-5f73-4647-922e-6b696361645f,rev?*%
%TF.SameCoordinates,Original*%
%TF.FileFunction,Legend,Top*%
%TF.FilePolarity,Positive*%
%FSLAX46Y46*%
G04 Gerber Fmt 4.6, Leading zero omitted, Abs format (unit mm)*
G04 Created by KiCad (PCBNEW (6.0.6)) date 2022-08-23 23:43:20*
%MOMM*%
%LPD*%
G01*
G04 APERTURE LIST*
%ADD10C,0.300000*%
%ADD11C,0.150000*%
%ADD12C,0.200000*%
%ADD13C,0.254000*%
%ADD14C,0.120000*%
G04 APERTURE END LIST*
D10*
X191726428Y-96730714D02*
X193226428Y-96730714D01*
X193226428Y-97087857D01*
X193155000Y-97302142D01*
X193012142Y-97445000D01*
X192869285Y-97516428D01*
X192583571Y-97587857D01*
X192369285Y-97587857D01*
X192083571Y-97516428D01*
X191940714Y-97445000D01*
X191797857Y-97302142D01*
X191726428Y-97087857D01*
X191726428Y-96730714D01*
X192155000Y-98159285D02*
X192155000Y-98873571D01*
X191726428Y-98016428D02*
X193226428Y-98516428D01*
X191726428Y-99016428D01*
X193226428Y-99302142D02*
X193226428Y-100159285D01*
X191726428Y-99730714D02*
X193226428Y-99730714D01*
X192155000Y-100587857D02*
X192155000Y-101302142D01*
X191726428Y-100445000D02*
X193226428Y-100945000D01*
X191726428Y-101445000D01*
X193083571Y-101873571D02*
X193155000Y-101945000D01*
X193226428Y-102087857D01*
X193226428Y-102445000D01*
X193155000Y-102587857D01*
X193083571Y-102659285D01*
X192940714Y-102730714D01*
X192797857Y-102730714D01*
X192583571Y-102659285D01*
X191726428Y-101802142D01*
X191726428Y-102730714D01*
X191599428Y-73108714D02*
X193099428Y-73108714D01*
X193099428Y-73465857D01*
X193028000Y-73680142D01*
X192885142Y-73823000D01*
X192742285Y-73894428D01*
X192456571Y-73965857D01*
X192242285Y-73965857D01*
X191956571Y-73894428D01*
X191813714Y-73823000D01*
X191670857Y-73680142D01*
X191599428Y-73465857D01*
X191599428Y-73108714D01*
X192028000Y-74537285D02*
X192028000Y-75251571D01*
X191599428Y-74394428D02*
X193099428Y-74894428D01*
X191599428Y-75394428D01*
X193099428Y-75680142D02*
X193099428Y-76537285D01*
X191599428Y-76108714D02*
X193099428Y-76108714D01*
X192028000Y-76965857D02*
X192028000Y-77680142D01*
X191599428Y-76823000D02*
X193099428Y-77323000D01*
X191599428Y-77823000D01*
X193099428Y-78180142D02*
X193099428Y-79108714D01*
X192528000Y-78608714D01*
X192528000Y-78823000D01*
X192456571Y-78965857D01*
X192385142Y-79037285D01*
X192242285Y-79108714D01*
X191885142Y-79108714D01*
X191742285Y-79037285D01*
X191670857Y-78965857D01*
X191599428Y-78823000D01*
X191599428Y-78394428D01*
X191670857Y-78251571D01*
X191742285Y-78180142D01*
X191726428Y-120225714D02*
X193226428Y-120225714D01*
X193226428Y-120582857D01*
X193155000Y-120797142D01*
X193012142Y-120940000D01*
X192869285Y-121011428D01*
X192583571Y-121082857D01*
X192369285Y-121082857D01*
X192083571Y-121011428D01*
X191940714Y-120940000D01*
X191797857Y-120797142D01*
X191726428Y-120582857D01*
X191726428Y-120225714D01*
X192155000Y-121654285D02*
X192155000Y-122368571D01*
X191726428Y-121511428D02*
X193226428Y-122011428D01*
X191726428Y-122511428D01*
X193226428Y-122797142D02*
X193226428Y-123654285D01*
X191726428Y-123225714D02*
X193226428Y-123225714D01*
X192155000Y-124082857D02*
X192155000Y-124797142D01*
X191726428Y-123940000D02*
X193226428Y-124440000D01*
X191726428Y-124940000D01*
X191726428Y-126225714D02*
X191726428Y-125368571D01*
X191726428Y-125797142D02*
X193226428Y-125797142D01*
X193012142Y-125654285D01*
X192869285Y-125511428D01*
X192797857Y-125368571D01*
D11*
%TO.C,R17*%
X187063142Y-121737380D02*
X186729809Y-121261190D01*
X186491714Y-121737380D02*
X186491714Y-120737380D01*
X186872666Y-120737380D01*
X186967904Y-120785000D01*
X187015523Y-120832619D01*
X187063142Y-120927857D01*
X187063142Y-121070714D01*
X187015523Y-121165952D01*
X186967904Y-121213571D01*
X186872666Y-121261190D01*
X186491714Y-121261190D01*
X188015523Y-121737380D02*
X187444095Y-121737380D01*
X187729809Y-121737380D02*
X187729809Y-120737380D01*
X187634571Y-120880238D01*
X187539333Y-120975476D01*
X187444095Y-121023095D01*
X188348857Y-120737380D02*
X189015523Y-120737380D01*
X188586952Y-121737380D01*
%TO.C,R12*%
X186936142Y-128595380D02*
X186602809Y-128119190D01*
X186364714Y-128595380D02*
X186364714Y-127595380D01*
X186745666Y-127595380D01*
X186840904Y-127643000D01*
X186888523Y-127690619D01*
X186936142Y-127785857D01*
X186936142Y-127928714D01*
X186888523Y-128023952D01*
X186840904Y-128071571D01*
X186745666Y-128119190D01*
X186364714Y-128119190D01*
X187888523Y-128595380D02*
X187317095Y-128595380D01*
X187602809Y-128595380D02*
X187602809Y-127595380D01*
X187507571Y-127738238D01*
X187412333Y-127833476D01*
X187317095Y-127881095D01*
X188269476Y-127690619D02*
X188317095Y-127643000D01*
X188412333Y-127595380D01*
X188650428Y-127595380D01*
X188745666Y-127643000D01*
X188793285Y-127690619D01*
X188840904Y-127785857D01*
X188840904Y-127881095D01*
X188793285Y-128023952D01*
X188221857Y-128595380D01*
X188840904Y-128595380D01*
%TO.C,R3*%
X189571333Y-95448380D02*
X189238000Y-94972190D01*
X188999904Y-95448380D02*
X188999904Y-94448380D01*
X189380857Y-94448380D01*
X189476095Y-94496000D01*
X189523714Y-94543619D01*
X189571333Y-94638857D01*
X189571333Y-94781714D01*
X189523714Y-94876952D01*
X189476095Y-94924571D01*
X189380857Y-94972190D01*
X188999904Y-94972190D01*
X189904666Y-94448380D02*
X190523714Y-94448380D01*
X190190380Y-94829333D01*
X190333238Y-94829333D01*
X190428476Y-94876952D01*
X190476095Y-94924571D01*
X190523714Y-95019809D01*
X190523714Y-95257904D01*
X190476095Y-95353142D01*
X190428476Y-95400761D01*
X190333238Y-95448380D01*
X190047523Y-95448380D01*
X189952285Y-95400761D01*
X189904666Y-95353142D01*
%TO.C,R15*%
X179951142Y-133040380D02*
X179617809Y-132564190D01*
X179379714Y-133040380D02*
X179379714Y-132040380D01*
X179760666Y-132040380D01*
X179855904Y-132088000D01*
X179903523Y-132135619D01*
X179951142Y-132230857D01*
X179951142Y-132373714D01*
X179903523Y-132468952D01*
X179855904Y-132516571D01*
X179760666Y-132564190D01*
X179379714Y-132564190D01*
X180903523Y-133040380D02*
X180332095Y-133040380D01*
X180617809Y-133040380D02*
X180617809Y-132040380D01*
X180522571Y-132183238D01*
X180427333Y-132278476D01*
X180332095Y-132326095D01*
X181808285Y-132040380D02*
X181332095Y-132040380D01*
X181284476Y-132516571D01*
X181332095Y-132468952D01*
X181427333Y-132421333D01*
X181665428Y-132421333D01*
X181760666Y-132468952D01*
X181808285Y-132516571D01*
X181855904Y-132611809D01*
X181855904Y-132849904D01*
X181808285Y-132945142D01*
X181760666Y-132992761D01*
X181665428Y-133040380D01*
X181427333Y-133040380D01*
X181332095Y-132992761D01*
X181284476Y-132945142D01*
%TO.C,R14*%
X179951142Y-130246380D02*
X179617809Y-129770190D01*
X179379714Y-130246380D02*
X179379714Y-129246380D01*
X179760666Y-129246380D01*
X179855904Y-129294000D01*
X179903523Y-129341619D01*
X179951142Y-129436857D01*
X179951142Y-129579714D01*
X179903523Y-129674952D01*
X179855904Y-129722571D01*
X179760666Y-129770190D01*
X179379714Y-129770190D01*
X180903523Y-130246380D02*
X180332095Y-130246380D01*
X180617809Y-130246380D02*
X180617809Y-129246380D01*
X180522571Y-129389238D01*
X180427333Y-129484476D01*
X180332095Y-129532095D01*
X181760666Y-129579714D02*
X181760666Y-130246380D01*
X181522571Y-129198761D02*
X181284476Y-129913047D01*
X181903523Y-129913047D01*
%TO.C,R5*%
X187793333Y-99131380D02*
X187460000Y-98655190D01*
X187221904Y-99131380D02*
X187221904Y-98131380D01*
X187602857Y-98131380D01*
X187698095Y-98179000D01*
X187745714Y-98226619D01*
X187793333Y-98321857D01*
X187793333Y-98464714D01*
X187745714Y-98559952D01*
X187698095Y-98607571D01*
X187602857Y-98655190D01*
X187221904Y-98655190D01*
X188698095Y-98131380D02*
X188221904Y-98131380D01*
X188174285Y-98607571D01*
X188221904Y-98559952D01*
X188317142Y-98512333D01*
X188555238Y-98512333D01*
X188650476Y-98559952D01*
X188698095Y-98607571D01*
X188745714Y-98702809D01*
X188745714Y-98940904D01*
X188698095Y-99036142D01*
X188650476Y-99083761D01*
X188555238Y-99131380D01*
X188317142Y-99131380D01*
X188221904Y-99083761D01*
X188174285Y-99036142D01*
%TO.C,R1*%
X119975333Y-78209380D02*
X119642000Y-77733190D01*
X119403904Y-78209380D02*
X119403904Y-77209380D01*
X119784857Y-77209380D01*
X119880095Y-77257000D01*
X119927714Y-77304619D01*
X119975333Y-77399857D01*
X119975333Y-77542714D01*
X119927714Y-77637952D01*
X119880095Y-77685571D01*
X119784857Y-77733190D01*
X119403904Y-77733190D01*
X120927714Y-78209380D02*
X120356285Y-78209380D01*
X120642000Y-78209380D02*
X120642000Y-77209380D01*
X120546761Y-77352238D01*
X120451523Y-77447476D01*
X120356285Y-77495095D01*
%TO.C,R11*%
X184269142Y-126436380D02*
X183935809Y-125960190D01*
X183697714Y-126436380D02*
X183697714Y-125436380D01*
X184078666Y-125436380D01*
X184173904Y-125484000D01*
X184221523Y-125531619D01*
X184269142Y-125626857D01*
X184269142Y-125769714D01*
X184221523Y-125864952D01*
X184173904Y-125912571D01*
X184078666Y-125960190D01*
X183697714Y-125960190D01*
X185221523Y-126436380D02*
X184650095Y-126436380D01*
X184935809Y-126436380D02*
X184935809Y-125436380D01*
X184840571Y-125579238D01*
X184745333Y-125674476D01*
X184650095Y-125722095D01*
X186173904Y-126436380D02*
X185602476Y-126436380D01*
X185888190Y-126436380D02*
X185888190Y-125436380D01*
X185792952Y-125579238D01*
X185697714Y-125674476D01*
X185602476Y-125722095D01*
%TO.C,R4*%
X187793333Y-101671380D02*
X187460000Y-101195190D01*
X187221904Y-101671380D02*
X187221904Y-100671380D01*
X187602857Y-100671380D01*
X187698095Y-100719000D01*
X187745714Y-100766619D01*
X187793333Y-100861857D01*
X187793333Y-101004714D01*
X187745714Y-101099952D01*
X187698095Y-101147571D01*
X187602857Y-101195190D01*
X187221904Y-101195190D01*
X188650476Y-101004714D02*
X188650476Y-101671380D01*
X188412380Y-100623761D02*
X188174285Y-101338047D01*
X188793333Y-101338047D01*
%TO.C,R6*%
X187412333Y-108275380D02*
X187079000Y-107799190D01*
X186840904Y-108275380D02*
X186840904Y-107275380D01*
X187221857Y-107275380D01*
X187317095Y-107323000D01*
X187364714Y-107370619D01*
X187412333Y-107465857D01*
X187412333Y-107608714D01*
X187364714Y-107703952D01*
X187317095Y-107751571D01*
X187221857Y-107799190D01*
X186840904Y-107799190D01*
X188269476Y-107275380D02*
X188079000Y-107275380D01*
X187983761Y-107323000D01*
X187936142Y-107370619D01*
X187840904Y-107513476D01*
X187793285Y-107703952D01*
X187793285Y-108084904D01*
X187840904Y-108180142D01*
X187888523Y-108227761D01*
X187983761Y-108275380D01*
X188174238Y-108275380D01*
X188269476Y-108227761D01*
X188317095Y-108180142D01*
X188364714Y-108084904D01*
X188364714Y-107846809D01*
X188317095Y-107751571D01*
X188269476Y-107703952D01*
X188174238Y-107656333D01*
X187983761Y-107656333D01*
X187888523Y-107703952D01*
X187840904Y-107751571D01*
X187793285Y-107846809D01*
%TO.C,R10*%
X184015142Y-123896380D02*
X183681809Y-123420190D01*
X183443714Y-123896380D02*
X183443714Y-122896380D01*
X183824666Y-122896380D01*
X183919904Y-122944000D01*
X183967523Y-122991619D01*
X184015142Y-123086857D01*
X184015142Y-123229714D01*
X183967523Y-123324952D01*
X183919904Y-123372571D01*
X183824666Y-123420190D01*
X183443714Y-123420190D01*
X184967523Y-123896380D02*
X184396095Y-123896380D01*
X184681809Y-123896380D02*
X184681809Y-122896380D01*
X184586571Y-123039238D01*
X184491333Y-123134476D01*
X184396095Y-123182095D01*
X185586571Y-122896380D02*
X185681809Y-122896380D01*
X185777047Y-122944000D01*
X185824666Y-122991619D01*
X185872285Y-123086857D01*
X185919904Y-123277333D01*
X185919904Y-123515428D01*
X185872285Y-123705904D01*
X185824666Y-123801142D01*
X185777047Y-123848761D01*
X185681809Y-123896380D01*
X185586571Y-123896380D01*
X185491333Y-123848761D01*
X185443714Y-123801142D01*
X185396095Y-123705904D01*
X185348476Y-123515428D01*
X185348476Y-123277333D01*
X185396095Y-123086857D01*
X185443714Y-122991619D01*
X185491333Y-122944000D01*
X185586571Y-122896380D01*
%TO.C,R9*%
X186777333Y-83002380D02*
X186444000Y-82526190D01*
X186205904Y-83002380D02*
X186205904Y-82002380D01*
X186586857Y-82002380D01*
X186682095Y-82050000D01*
X186729714Y-82097619D01*
X186777333Y-82192857D01*
X186777333Y-82335714D01*
X186729714Y-82430952D01*
X186682095Y-82478571D01*
X186586857Y-82526190D01*
X186205904Y-82526190D01*
X187253523Y-83002380D02*
X187444000Y-83002380D01*
X187539238Y-82954761D01*
X187586857Y-82907142D01*
X187682095Y-82764285D01*
X187729714Y-82573809D01*
X187729714Y-82192857D01*
X187682095Y-82097619D01*
X187634476Y-82050000D01*
X187539238Y-82002380D01*
X187348761Y-82002380D01*
X187253523Y-82050000D01*
X187205904Y-82097619D01*
X187158285Y-82192857D01*
X187158285Y-82430952D01*
X187205904Y-82526190D01*
X187253523Y-82573809D01*
X187348761Y-82621428D01*
X187539238Y-82621428D01*
X187634476Y-82573809D01*
X187682095Y-82526190D01*
X187729714Y-82430952D01*
%TO.C,R7*%
X187412333Y-110942380D02*
X187079000Y-110466190D01*
X186840904Y-110942380D02*
X186840904Y-109942380D01*
X187221857Y-109942380D01*
X187317095Y-109990000D01*
X187364714Y-110037619D01*
X187412333Y-110132857D01*
X187412333Y-110275714D01*
X187364714Y-110370952D01*
X187317095Y-110418571D01*
X187221857Y-110466190D01*
X186840904Y-110466190D01*
X187745666Y-109942380D02*
X188412333Y-109942380D01*
X187983761Y-110942380D01*
%TO.C,R16*%
X187063142Y-119656501D02*
X186729809Y-119180311D01*
X186491714Y-119656501D02*
X186491714Y-118656501D01*
X186872666Y-118656501D01*
X186967904Y-118704121D01*
X187015523Y-118751740D01*
X187063142Y-118846978D01*
X187063142Y-118989835D01*
X187015523Y-119085073D01*
X186967904Y-119132692D01*
X186872666Y-119180311D01*
X186491714Y-119180311D01*
X188015523Y-119656501D02*
X187444095Y-119656501D01*
X187729809Y-119656501D02*
X187729809Y-118656501D01*
X187634571Y-118799359D01*
X187539333Y-118894597D01*
X187444095Y-118942216D01*
X188872666Y-118656501D02*
X188682190Y-118656501D01*
X188586952Y-118704121D01*
X188539333Y-118751740D01*
X188444095Y-118894597D01*
X188396476Y-119085073D01*
X188396476Y-119466025D01*
X188444095Y-119561263D01*
X188491714Y-119608882D01*
X188586952Y-119656501D01*
X188777428Y-119656501D01*
X188872666Y-119608882D01*
X188920285Y-119561263D01*
X188967904Y-119466025D01*
X188967904Y-119227930D01*
X188920285Y-119132692D01*
X188872666Y-119085073D01*
X188777428Y-119037454D01*
X188586952Y-119037454D01*
X188491714Y-119085073D01*
X188444095Y-119132692D01*
X188396476Y-119227930D01*
%TO.C,R8*%
X186777333Y-80335380D02*
X186444000Y-79859190D01*
X186205904Y-80335380D02*
X186205904Y-79335380D01*
X186586857Y-79335380D01*
X186682095Y-79383000D01*
X186729714Y-79430619D01*
X186777333Y-79525857D01*
X186777333Y-79668714D01*
X186729714Y-79763952D01*
X186682095Y-79811571D01*
X186586857Y-79859190D01*
X186205904Y-79859190D01*
X187348761Y-79763952D02*
X187253523Y-79716333D01*
X187205904Y-79668714D01*
X187158285Y-79573476D01*
X187158285Y-79525857D01*
X187205904Y-79430619D01*
X187253523Y-79383000D01*
X187348761Y-79335380D01*
X187539238Y-79335380D01*
X187634476Y-79383000D01*
X187682095Y-79430619D01*
X187729714Y-79525857D01*
X187729714Y-79573476D01*
X187682095Y-79668714D01*
X187634476Y-79716333D01*
X187539238Y-79763952D01*
X187348761Y-79763952D01*
X187253523Y-79811571D01*
X187205904Y-79859190D01*
X187158285Y-79954428D01*
X187158285Y-80144904D01*
X187205904Y-80240142D01*
X187253523Y-80287761D01*
X187348761Y-80335380D01*
X187539238Y-80335380D01*
X187634476Y-80287761D01*
X187682095Y-80240142D01*
X187729714Y-80144904D01*
X187729714Y-79954428D01*
X187682095Y-79859190D01*
X187634476Y-79811571D01*
X187539238Y-79763952D01*
%TO.C,R13*%
X187063142Y-131262380D02*
X186729809Y-130786190D01*
X186491714Y-131262380D02*
X186491714Y-130262380D01*
X186872666Y-130262380D01*
X186967904Y-130310000D01*
X187015523Y-130357619D01*
X187063142Y-130452857D01*
X187063142Y-130595714D01*
X187015523Y-130690952D01*
X186967904Y-130738571D01*
X186872666Y-130786190D01*
X186491714Y-130786190D01*
X188015523Y-131262380D02*
X187444095Y-131262380D01*
X187729809Y-131262380D02*
X187729809Y-130262380D01*
X187634571Y-130405238D01*
X187539333Y-130500476D01*
X187444095Y-130548095D01*
X188348857Y-130262380D02*
X188967904Y-130262380D01*
X188634571Y-130643333D01*
X188777428Y-130643333D01*
X188872666Y-130690952D01*
X188920285Y-130738571D01*
X188967904Y-130833809D01*
X188967904Y-131071904D01*
X188920285Y-131167142D01*
X188872666Y-131214761D01*
X188777428Y-131262380D01*
X188491714Y-131262380D01*
X188396476Y-131214761D01*
X188348857Y-131167142D01*
%TO.C,R2*%
X189571333Y-92781380D02*
X189238000Y-92305190D01*
X188999904Y-92781380D02*
X188999904Y-91781380D01*
X189380857Y-91781380D01*
X189476095Y-91829000D01*
X189523714Y-91876619D01*
X189571333Y-91971857D01*
X189571333Y-92114714D01*
X189523714Y-92209952D01*
X189476095Y-92257571D01*
X189380857Y-92305190D01*
X188999904Y-92305190D01*
X189952285Y-91876619D02*
X189999904Y-91829000D01*
X190095142Y-91781380D01*
X190333238Y-91781380D01*
X190428476Y-91829000D01*
X190476095Y-91876619D01*
X190523714Y-91971857D01*
X190523714Y-92067095D01*
X190476095Y-92209952D01*
X189904666Y-92781380D01*
X190523714Y-92781380D01*
%TO.C,C1*%
X119975333Y-73509142D02*
X119927714Y-73556761D01*
X119784857Y-73604380D01*
X119689619Y-73604380D01*
X119546761Y-73556761D01*
X119451523Y-73461523D01*
X119403904Y-73366285D01*
X119356285Y-73175809D01*
X119356285Y-73032952D01*
X119403904Y-72842476D01*
X119451523Y-72747238D01*
X119546761Y-72652000D01*
X119689619Y-72604380D01*
X119784857Y-72604380D01*
X119927714Y-72652000D01*
X119975333Y-72699619D01*
X120927714Y-73604380D02*
X120356285Y-73604380D01*
X120642000Y-73604380D02*
X120642000Y-72604380D01*
X120546761Y-72747238D01*
X120451523Y-72842476D01*
X120356285Y-72890095D01*
D12*
%TO.C,RP3*%
X114087500Y-121089994D02*
X114087500Y-122239999D01*
X116037500Y-121089994D02*
X115362500Y-121089994D01*
X116037500Y-121089994D02*
X116037500Y-122239999D01*
X114762500Y-122239999D02*
X114087500Y-122239999D01*
X114762500Y-121089994D02*
X114087500Y-121089994D01*
X116037500Y-122239999D02*
X115362500Y-122239999D01*
D13*
%TO.C,UP1*%
X112516557Y-115975907D02*
X114316578Y-115975907D01*
X112516557Y-112875888D02*
X114316578Y-112875888D01*
X112146580Y-112774999D02*
G75*
G03*
X112146580Y-112774999I-127000J0D01*
G01*
D12*
%TO.C,RP2*%
X119828505Y-112942999D02*
X118678500Y-112942999D01*
X119828505Y-114892999D02*
X119828505Y-114217999D01*
X119828505Y-114892999D02*
X118678500Y-114892999D01*
X118678500Y-113617999D02*
X118678500Y-112942999D01*
X119828505Y-113617999D02*
X119828505Y-112942999D01*
X118678500Y-114892999D02*
X118678500Y-114217999D01*
%TO.C,RP1*%
X116900495Y-114892999D02*
X118050500Y-114892999D01*
X116900495Y-112942999D02*
X116900495Y-113617999D01*
X116900495Y-112942999D02*
X118050500Y-112942999D01*
X118050500Y-114217999D02*
X118050500Y-114892999D01*
X116900495Y-114217999D02*
X116900495Y-114892999D01*
X118050500Y-112942999D02*
X118050500Y-113617999D01*
D13*
%TO.C,LP1*%
X112751100Y-119861599D02*
X114325900Y-119861599D01*
X112751100Y-117880399D02*
X114325900Y-117880399D01*
X113538500Y-118071000D02*
G75*
G03*
X113538500Y-118571000I0J-250000D01*
G01*
X113538500Y-118570999D02*
G75*
G03*
X113538500Y-119070999I0J-250000D01*
G01*
X113538500Y-119070998D02*
G75*
G03*
X113538500Y-119570998I0J-250000D01*
G01*
D12*
%TO.C,CP2*%
X117602500Y-116085000D02*
X118872500Y-116085000D01*
X117602500Y-119625001D02*
X118872500Y-119625001D01*
X119272497Y-117405000D02*
X119272499Y-116484999D01*
X117202496Y-117404997D02*
X117202496Y-116484997D01*
X117202496Y-119225004D02*
X117202496Y-118305003D01*
X119272497Y-118304998D02*
X119272499Y-119224999D01*
%TO.C,CP1*%
X108204500Y-112654999D02*
X109474500Y-112654999D01*
X108204500Y-116195000D02*
X109474500Y-116195000D01*
X109874497Y-113974999D02*
X109874499Y-113054998D01*
X107804496Y-113974996D02*
X107804496Y-113054996D01*
X107804496Y-115795003D02*
X107804496Y-114875002D01*
X109874497Y-114874997D02*
X109874499Y-115794998D01*
D14*
%TO.C,R17*%
X190118000Y-122252121D02*
X190118000Y-121916879D01*
X189358000Y-122252121D02*
X189358000Y-121916879D01*
%TO.C,J9*%
X139703277Y-139444532D02*
X147383277Y-139444532D01*
X137103277Y-139444532D02*
X137103277Y-138114532D01*
X147383277Y-139444532D02*
X147383277Y-136784532D01*
X139703277Y-139444532D02*
X139703277Y-136784532D01*
X139703277Y-136784532D02*
X147383277Y-136784532D01*
X138433277Y-139444532D02*
X137103277Y-139444532D01*
%TO.C,R12*%
X189358000Y-127213379D02*
X189358000Y-127548621D01*
X190118000Y-127213379D02*
X190118000Y-127548621D01*
%TO.C,J7*%
X99457000Y-137858001D02*
X99457000Y-128658001D01*
X114157000Y-135758001D02*
X114157000Y-137858001D01*
X114457000Y-128358001D02*
X112857000Y-128358001D01*
X99457000Y-128658001D02*
X114157000Y-128658001D01*
X114157000Y-128658001D02*
X114157000Y-130758001D01*
X114457000Y-130058001D02*
X114457000Y-128358001D01*
X107957000Y-137858001D02*
X99457000Y-137858001D01*
X114157000Y-137858001D02*
X112357000Y-137858001D01*
D12*
%TO.C,PMODA1*%
X145368747Y-82118200D02*
X145368747Y-77038200D01*
X145368747Y-82118200D02*
X160608747Y-82118200D01*
X160608747Y-82118200D02*
X160608747Y-77038200D01*
X145368747Y-77038200D02*
X160608747Y-77038200D01*
%TO.C,J2J1*%
X166119277Y-93664532D02*
X166119277Y-88584532D01*
X145799277Y-88584532D02*
X166119277Y-88584532D01*
X145799277Y-93664532D02*
X166119277Y-93664532D01*
X145799277Y-93664532D02*
X145799277Y-88584532D01*
D14*
%TO.C,R3*%
X190958500Y-95150621D02*
X190958500Y-94815379D01*
X191718500Y-95150621D02*
X191718500Y-94815379D01*
%TO.C,R15*%
X182627000Y-132591121D02*
X182627000Y-132255879D01*
X183387000Y-132591121D02*
X183387000Y-132255879D01*
D12*
%TO.C,PMODB1*%
X168228747Y-82118200D02*
X168228747Y-77038200D01*
X183468747Y-82118200D02*
X183468747Y-77038200D01*
X168228747Y-77038200D02*
X183468747Y-77038200D01*
X168228747Y-82118200D02*
X183468747Y-82118200D01*
D14*
%TO.C,R14*%
X182627000Y-129499379D02*
X182627000Y-129834621D01*
X183387000Y-129499379D02*
X183387000Y-129834621D01*
%TO.C,J6*%
X198275000Y-123265600D02*
X197927917Y-123265600D01*
X198275000Y-137985600D02*
X197927917Y-137985600D01*
X204745000Y-137082066D02*
X198275000Y-137082066D01*
X196202083Y-123265600D02*
X195927917Y-123265600D01*
X204745000Y-137880892D02*
X198275000Y-137880892D01*
X204745000Y-138451482D02*
X198275000Y-138451482D01*
X198275000Y-127265600D02*
X197927917Y-127265600D01*
X198275000Y-133985600D02*
X197927917Y-133985600D01*
X198275000Y-131985600D02*
X197927917Y-131985600D01*
X196202083Y-121265600D02*
X195927917Y-121265600D01*
X204745000Y-136625600D02*
X198275000Y-136625600D01*
X196202083Y-119265600D02*
X195927917Y-119265600D01*
X196202083Y-119985600D02*
X195927917Y-119985600D01*
X204745000Y-122625600D02*
X198275000Y-122625600D01*
X204745000Y-138109128D02*
X198275000Y-138109128D01*
X196202083Y-127985600D02*
X195927917Y-127985600D01*
X196202083Y-131265600D02*
X195927917Y-131265600D01*
X204745000Y-138685600D02*
X204745000Y-118565600D01*
X204745000Y-137310302D02*
X198275000Y-137310302D01*
X204745000Y-138685600D02*
X198275000Y-138685600D01*
X204745000Y-137538538D02*
X198275000Y-137538538D01*
X196202083Y-129265600D02*
X195927917Y-129265600D01*
X198275000Y-121985600D02*
X197927917Y-121985600D01*
X204745000Y-137995010D02*
X198275000Y-137995010D01*
X198275000Y-121265600D02*
X197927917Y-121265600D01*
X198275000Y-135265600D02*
X197927917Y-135265600D01*
X198275000Y-135985600D02*
X197927917Y-135985600D01*
X204745000Y-136967948D02*
X198275000Y-136967948D01*
X196202083Y-133985600D02*
X195927917Y-133985600D01*
X196202083Y-133265600D02*
X195927917Y-133265600D01*
X204745000Y-118565600D02*
X198275000Y-118565600D01*
X196202083Y-127265600D02*
X195927917Y-127265600D01*
X198275000Y-131265600D02*
X197927917Y-131265600D01*
X196202083Y-135265600D02*
X195927917Y-135265600D01*
X198275000Y-125265600D02*
X197927917Y-125265600D01*
X204745000Y-137424420D02*
X198275000Y-137424420D01*
X198275000Y-125985600D02*
X197927917Y-125985600D01*
X204745000Y-130625600D02*
X198275000Y-130625600D01*
X196202083Y-121985600D02*
X195927917Y-121985600D01*
X196202083Y-125985600D02*
X195927917Y-125985600D01*
X204745000Y-126625600D02*
X198275000Y-126625600D01*
X204745000Y-137196184D02*
X198275000Y-137196184D01*
X196202083Y-125265600D02*
X195927917Y-125265600D01*
X196202083Y-131985600D02*
X195927917Y-131985600D01*
X198275000Y-129985600D02*
X197927917Y-129985600D01*
X198275000Y-119985600D02*
X197927917Y-119985600D01*
X194130000Y-138685600D02*
X194130000Y-137625600D01*
X204745000Y-137652656D02*
X198275000Y-137652656D01*
X196202083Y-137985600D02*
X196000000Y-137985600D01*
X204745000Y-120625600D02*
X198275000Y-120625600D01*
X198275000Y-138685600D02*
X198275000Y-118565600D01*
X198275000Y-127985600D02*
X197927917Y-127985600D01*
X204745000Y-137766774D02*
X198275000Y-137766774D01*
X198275000Y-119265600D02*
X197927917Y-119265600D01*
X196202083Y-123985600D02*
X195927917Y-123985600D01*
X195065000Y-138685600D02*
X194130000Y-138685600D01*
X198275000Y-133265600D02*
X197927917Y-133265600D01*
X204745000Y-132625600D02*
X198275000Y-132625600D01*
X204745000Y-136739712D02*
X198275000Y-136739712D01*
X198275000Y-129265600D02*
X197927917Y-129265600D01*
X196202083Y-135985600D02*
X195927917Y-135985600D01*
X204745000Y-138223246D02*
X198275000Y-138223246D01*
X196202083Y-137265600D02*
X196000000Y-137265600D01*
X204745000Y-128625600D02*
X198275000Y-128625600D01*
X204745000Y-136853830D02*
X198275000Y-136853830D01*
X204745000Y-138565600D02*
X198275000Y-138565600D01*
X204745000Y-134625600D02*
X198275000Y-134625600D01*
X198275000Y-123985600D02*
X197927917Y-123985600D01*
X204745000Y-138337364D02*
X198275000Y-138337364D01*
X204745000Y-124625600D02*
X198275000Y-124625600D01*
X196202083Y-129985600D02*
X195927917Y-129985600D01*
X198275000Y-137265600D02*
X197927917Y-137265600D01*
D12*
%TO.C,J8*%
X119383277Y-134304532D02*
X119383277Y-139384532D01*
X134623277Y-134304532D02*
X134623277Y-139384532D01*
X134623277Y-134304532D02*
X119383277Y-134304532D01*
X134623277Y-139384532D02*
X119383277Y-139384532D01*
D14*
%TO.C,J5*%
X198275000Y-105719800D02*
X197927917Y-105719800D01*
X198275000Y-98439800D02*
X197927917Y-98439800D01*
X196202083Y-109719800D02*
X195927917Y-109719800D01*
X196202083Y-103719800D02*
X195927917Y-103719800D01*
X196202083Y-106439800D02*
X195927917Y-106439800D01*
X196202083Y-101719800D02*
X195927917Y-101719800D01*
X196202083Y-111719800D02*
X195927917Y-111719800D01*
X196202083Y-95719800D02*
X195927917Y-95719800D01*
X204745000Y-103079800D02*
X198275000Y-103079800D01*
X196202083Y-113719800D02*
X196000000Y-113719800D01*
X198275000Y-110439800D02*
X197927917Y-110439800D01*
X204745000Y-114563328D02*
X198275000Y-114563328D01*
X195065000Y-115139800D02*
X194130000Y-115139800D01*
X196202083Y-97719800D02*
X195927917Y-97719800D01*
X196202083Y-108439800D02*
X195927917Y-108439800D01*
X198275000Y-113719800D02*
X197927917Y-113719800D01*
X204745000Y-114106856D02*
X198275000Y-114106856D01*
X196202083Y-112439800D02*
X195927917Y-112439800D01*
X204745000Y-114220974D02*
X198275000Y-114220974D01*
X196202083Y-100439800D02*
X195927917Y-100439800D01*
X198275000Y-107719800D02*
X197927917Y-107719800D01*
X204745000Y-95019800D02*
X198275000Y-95019800D01*
X196202083Y-105719800D02*
X195927917Y-105719800D01*
X196202083Y-104439800D02*
X195927917Y-104439800D01*
X204745000Y-114905682D02*
X198275000Y-114905682D01*
X198275000Y-115139800D02*
X198275000Y-95019800D01*
X204745000Y-114677446D02*
X198275000Y-114677446D01*
X204745000Y-113308030D02*
X198275000Y-113308030D01*
X198275000Y-111719800D02*
X197927917Y-111719800D01*
X204745000Y-109079800D02*
X198275000Y-109079800D01*
X196202083Y-98439800D02*
X195927917Y-98439800D01*
X198275000Y-108439800D02*
X197927917Y-108439800D01*
X194130000Y-115139800D02*
X194130000Y-114079800D01*
X198275000Y-114439800D02*
X197927917Y-114439800D01*
X198275000Y-112439800D02*
X197927917Y-112439800D01*
X196202083Y-110439800D02*
X195927917Y-110439800D01*
X198275000Y-106439800D02*
X197927917Y-106439800D01*
X196202083Y-102439800D02*
X195927917Y-102439800D01*
X204745000Y-99079800D02*
X198275000Y-99079800D01*
X198275000Y-104439800D02*
X197927917Y-104439800D01*
X204745000Y-105079800D02*
X198275000Y-105079800D01*
X198275000Y-96439800D02*
X197927917Y-96439800D01*
X198275000Y-102439800D02*
X197927917Y-102439800D01*
X196202083Y-107719800D02*
X195927917Y-107719800D01*
X204745000Y-114335092D02*
X198275000Y-114335092D01*
X204745000Y-113764502D02*
X198275000Y-113764502D01*
X204745000Y-114449210D02*
X198275000Y-114449210D01*
X198275000Y-101719800D02*
X197927917Y-101719800D01*
X204745000Y-113422148D02*
X198275000Y-113422148D01*
X196202083Y-114439800D02*
X196000000Y-114439800D01*
X204745000Y-113193912D02*
X198275000Y-113193912D01*
X204745000Y-113992738D02*
X198275000Y-113992738D01*
X204745000Y-115139800D02*
X204745000Y-95019800D01*
X204745000Y-97079800D02*
X198275000Y-97079800D01*
X198275000Y-109719800D02*
X197927917Y-109719800D01*
X204745000Y-113079800D02*
X198275000Y-113079800D01*
X204745000Y-111079800D02*
X198275000Y-111079800D01*
X204745000Y-115019800D02*
X198275000Y-115019800D01*
X196202083Y-99719800D02*
X195927917Y-99719800D01*
X198275000Y-103719800D02*
X197927917Y-103719800D01*
X198275000Y-97719800D02*
X197927917Y-97719800D01*
X204745000Y-113650384D02*
X198275000Y-113650384D01*
X204745000Y-113536266D02*
X198275000Y-113536266D01*
X204745000Y-115139800D02*
X198275000Y-115139800D01*
X198275000Y-95719800D02*
X197927917Y-95719800D01*
X204745000Y-113878620D02*
X198275000Y-113878620D01*
X196202083Y-96439800D02*
X195927917Y-96439800D01*
X198275000Y-100439800D02*
X197927917Y-100439800D01*
X204745000Y-114791564D02*
X198275000Y-114791564D01*
X204745000Y-107079800D02*
X198275000Y-107079800D01*
X204745000Y-101079800D02*
X198275000Y-101079800D01*
X198275000Y-99719800D02*
X197927917Y-99719800D01*
D12*
%TO.C,J1*%
X187963277Y-93664532D02*
X187963277Y-88584532D01*
X167643277Y-93664532D02*
X187963277Y-93664532D01*
X167643277Y-93664532D02*
X167643277Y-88584532D01*
X167643277Y-88584532D02*
X187963277Y-88584532D01*
D14*
%TO.C,R5*%
X190118000Y-98511379D02*
X190118000Y-98846621D01*
X189358000Y-98511379D02*
X189358000Y-98846621D01*
%TO.C,R1*%
X120396724Y-76849500D02*
X119887276Y-76849500D01*
X120396724Y-75804500D02*
X119887276Y-75804500D01*
%TO.C,R11*%
X186943000Y-126114121D02*
X186943000Y-125778879D01*
X186183000Y-126114121D02*
X186183000Y-125778879D01*
%TO.C,R4*%
X190118000Y-101334621D02*
X190118000Y-100999379D01*
X189358000Y-101334621D02*
X189358000Y-100999379D01*
D12*
%TO.C,HDMI2*%
X109624354Y-66467401D02*
X109624354Y-64117405D01*
X116574352Y-67667401D02*
X116574352Y-66517401D01*
X115024343Y-80527401D02*
X115024343Y-79027401D01*
X119624354Y-66167401D02*
X119624354Y-64167403D01*
X102374353Y-76267399D02*
X102374353Y-74767402D01*
X109624354Y-66467401D02*
X110224352Y-65867402D01*
X116874349Y-74767399D02*
X116874352Y-76267399D01*
X102374353Y-69217398D02*
X116824349Y-69217398D01*
X99624353Y-66217399D02*
X99624353Y-64167403D01*
X115024343Y-80527401D02*
X115724344Y-80527401D01*
X116874352Y-70767400D02*
X116874352Y-69267400D01*
X102674355Y-67667401D02*
X102674355Y-66517398D01*
X104224344Y-79027401D02*
X104824343Y-79027401D01*
X103524343Y-80527401D02*
X104224344Y-80527401D01*
X102374353Y-70767400D02*
X102374353Y-69267400D01*
X99924353Y-66517398D02*
X119324355Y-66517401D01*
X104224344Y-80527401D02*
X104224344Y-79027401D01*
X102374353Y-81267399D02*
X116874352Y-81267399D01*
X109024355Y-65867402D02*
X109624354Y-66467401D01*
X116824349Y-69217398D02*
X116874352Y-69267400D01*
X114424344Y-79027401D02*
X115024343Y-79027401D01*
D14*
%TO.C,R6*%
X190118000Y-107655379D02*
X190118000Y-107990621D01*
X189358000Y-107655379D02*
X189358000Y-107990621D01*
%TO.C,R10*%
X186183000Y-123238879D02*
X186183000Y-123574121D01*
X186943000Y-123238879D02*
X186943000Y-123574121D01*
%TO.C,R9*%
X189102000Y-82717621D02*
X189102000Y-82382379D01*
X188342000Y-82717621D02*
X188342000Y-82382379D01*
%TO.C,R7*%
X189358000Y-110657621D02*
X189358000Y-110322379D01*
X190118000Y-110657621D02*
X190118000Y-110322379D01*
%TO.C,R16*%
X189358000Y-118868879D02*
X189358000Y-119204121D01*
X190118000Y-118868879D02*
X190118000Y-119204121D01*
%TO.C,J4*%
X196202083Y-78894000D02*
X195927917Y-78894000D01*
X194130000Y-91594000D02*
X194130000Y-90534000D01*
X198275000Y-78174000D02*
X197927917Y-78174000D01*
X198275000Y-74894000D02*
X197927917Y-74894000D01*
X204745000Y-79534000D02*
X198275000Y-79534000D01*
X204745000Y-77534000D02*
X198275000Y-77534000D01*
X204745000Y-91474000D02*
X198275000Y-91474000D01*
X204745000Y-91131646D02*
X198275000Y-91131646D01*
X198275000Y-76174000D02*
X197927917Y-76174000D01*
X204745000Y-89876348D02*
X198275000Y-89876348D01*
X204745000Y-90675174D02*
X198275000Y-90675174D01*
X198275000Y-72894000D02*
X197927917Y-72894000D01*
X196202083Y-80894000D02*
X195927917Y-80894000D01*
X196202083Y-86174000D02*
X195927917Y-86174000D01*
X198275000Y-78894000D02*
X197927917Y-78894000D01*
X198275000Y-82894000D02*
X197927917Y-82894000D01*
X196202083Y-88174000D02*
X195927917Y-88174000D01*
X196202083Y-72174000D02*
X195927917Y-72174000D01*
X198275000Y-84894000D02*
X197927917Y-84894000D01*
X198275000Y-74174000D02*
X197927917Y-74174000D01*
X196202083Y-86894000D02*
X195927917Y-86894000D01*
X204745000Y-83534000D02*
X198275000Y-83534000D01*
X198275000Y-88174000D02*
X197927917Y-88174000D01*
X196202083Y-90894000D02*
X196000000Y-90894000D01*
X198275000Y-91594000D02*
X198275000Y-71474000D01*
X204745000Y-90561056D02*
X198275000Y-90561056D01*
X198275000Y-86174000D02*
X197927917Y-86174000D01*
X196202083Y-90174000D02*
X196000000Y-90174000D01*
X196202083Y-76174000D02*
X195927917Y-76174000D01*
X204745000Y-90218702D02*
X198275000Y-90218702D01*
X196202083Y-72894000D02*
X195927917Y-72894000D01*
X204745000Y-89534000D02*
X198275000Y-89534000D01*
X196202083Y-82174000D02*
X195927917Y-82174000D01*
X198275000Y-84174000D02*
X197927917Y-84174000D01*
X196202083Y-80174000D02*
X195927917Y-80174000D01*
X196202083Y-84174000D02*
X195927917Y-84174000D01*
X204745000Y-87534000D02*
X198275000Y-87534000D01*
X204745000Y-91245764D02*
X198275000Y-91245764D01*
X204745000Y-90104584D02*
X198275000Y-90104584D01*
X198275000Y-88894000D02*
X197927917Y-88894000D01*
X198275000Y-80174000D02*
X197927917Y-80174000D01*
X204745000Y-90789292D02*
X198275000Y-90789292D01*
X196202083Y-78174000D02*
X195927917Y-78174000D01*
X204745000Y-91359882D02*
X198275000Y-91359882D01*
X198275000Y-90174000D02*
X197927917Y-90174000D01*
X196202083Y-82894000D02*
X195927917Y-82894000D01*
X198275000Y-82174000D02*
X197927917Y-82174000D01*
X204745000Y-71474000D02*
X198275000Y-71474000D01*
X204745000Y-90446938D02*
X198275000Y-90446938D01*
X204745000Y-91594000D02*
X204745000Y-71474000D01*
X198275000Y-72174000D02*
X197927917Y-72174000D01*
X204745000Y-89648112D02*
X198275000Y-89648112D01*
X204745000Y-89990466D02*
X198275000Y-89990466D01*
X204745000Y-91594000D02*
X198275000Y-91594000D01*
X198275000Y-90894000D02*
X197927917Y-90894000D01*
X204745000Y-90332820D02*
X198275000Y-90332820D01*
X204745000Y-75534000D02*
X198275000Y-75534000D01*
X196202083Y-84894000D02*
X195927917Y-84894000D01*
X196202083Y-74174000D02*
X195927917Y-74174000D01*
X195065000Y-91594000D02*
X194130000Y-91594000D01*
X204745000Y-90903410D02*
X198275000Y-90903410D01*
X204745000Y-91017528D02*
X198275000Y-91017528D01*
X204745000Y-73534000D02*
X198275000Y-73534000D01*
X196202083Y-76894000D02*
X195927917Y-76894000D01*
X196202083Y-74894000D02*
X195927917Y-74894000D01*
X198275000Y-76894000D02*
X197927917Y-76894000D01*
X204745000Y-85534000D02*
X198275000Y-85534000D01*
X196202083Y-88894000D02*
X195927917Y-88894000D01*
X198275000Y-80894000D02*
X197927917Y-80894000D01*
X198275000Y-86894000D02*
X197927917Y-86894000D01*
X204745000Y-81534000D02*
X198275000Y-81534000D01*
X204745000Y-89762230D02*
X198275000Y-89762230D01*
%TO.C,R8*%
X188342000Y-79715379D02*
X188342000Y-80050621D01*
X189102000Y-79715379D02*
X189102000Y-80050621D01*
D12*
%TO.C,HDMI1*%
X137824357Y-69217398D02*
X137874360Y-69267400D01*
X130024363Y-65867402D02*
X130624362Y-66467401D01*
X125224352Y-79027401D02*
X125824351Y-79027401D01*
X136024351Y-80527401D02*
X136724352Y-80527401D01*
X135424352Y-79027401D02*
X136024351Y-79027401D01*
X124524351Y-80527401D02*
X125224352Y-80527401D01*
X123374361Y-76267399D02*
X123374361Y-74767402D01*
X123674363Y-67667401D02*
X123674363Y-66517398D01*
X123374361Y-70767400D02*
X123374361Y-69267400D01*
X137874360Y-70767400D02*
X137874360Y-69267400D01*
X120924361Y-66517398D02*
X140324363Y-66517401D01*
X123374361Y-81267399D02*
X137874360Y-81267399D01*
X125224352Y-80527401D02*
X125224352Y-79027401D01*
X130624362Y-66467401D02*
X131224360Y-65867402D01*
X140624362Y-66167401D02*
X140624362Y-64167403D01*
X137874357Y-74767399D02*
X137874360Y-76267399D01*
X136024351Y-80527401D02*
X136024351Y-79027401D01*
X137574360Y-67667401D02*
X137574360Y-66517401D01*
X130624362Y-66467401D02*
X130624362Y-64117405D01*
X120624361Y-66217399D02*
X120624361Y-64167403D01*
X123374361Y-69217398D02*
X137824357Y-69217398D01*
D14*
%TO.C,R13*%
X190118000Y-130798621D02*
X190118000Y-130463379D01*
X189358000Y-130798621D02*
X189358000Y-130463379D01*
D12*
%TO.C,J2*%
X172723277Y-134304532D02*
X172723277Y-139384532D01*
X187963277Y-134304532D02*
X172723277Y-134304532D01*
X187963277Y-139384532D02*
X172723277Y-139384532D01*
X187963277Y-134304532D02*
X187963277Y-139384532D01*
%TO.C,J3*%
X149863277Y-136844532D02*
X170183277Y-136844532D01*
X149863277Y-139384532D02*
X149863277Y-136844532D01*
X149863277Y-139384532D02*
X170183277Y-139384532D01*
X170183277Y-139384532D02*
X170183277Y-136844532D01*
D14*
%TO.C,R2*%
X191718500Y-92148379D02*
X191718500Y-92483621D01*
X190958500Y-92148379D02*
X190958500Y-92483621D01*
%TO.C,C1*%
X120396724Y-75198500D02*
X119887276Y-75198500D01*
X120396724Y-74153500D02*
X119887276Y-74153500D01*
%TD*%
M02*
