%TF.GenerationSoftware,KiCad,Pcbnew,(6.0.6)*%
%TF.CreationDate,2022-08-23T23:43:20+09:00*%
%TF.ProjectId,ebaz_sdr,6562617a-5f73-4647-922e-6b696361645f,rev?*%
%TF.SameCoordinates,Original*%
%TF.FileFunction,Soldermask,Bot*%
%TF.FilePolarity,Negative*%
%FSLAX46Y46*%
G04 Gerber Fmt 4.6, Leading zero omitted, Abs format (unit mm)*
G04 Created by KiCad (PCBNEW (6.0.6)) date 2022-08-23 23:43:20*
%MOMM*%
%LPD*%
G01*
G04 APERTURE LIST*
%ADD10R,1.700000X1.700000*%
%ADD11O,1.700000X1.700000*%
%ADD12R,1.800000X4.400000*%
%ADD13O,1.800000X4.000000*%
%ADD14O,4.000000X1.800000*%
%ADD15R,1.500000X1.500000*%
%ADD16C,1.500000*%
%ADD17R,1.350000X1.350000*%
%ADD18O,1.350000X1.350000*%
%ADD19O,2.400000X4.000000*%
%ADD20O,2.000000X3.000000*%
G04 APERTURE END LIST*
D10*
%TO.C,J9*%
X138433277Y-138114532D03*
D11*
X140973277Y-138114532D03*
X143513277Y-138114532D03*
X146053277Y-138114532D03*
%TD*%
D12*
%TO.C,J7*%
X113157000Y-133258001D03*
D13*
X107357000Y-133258001D03*
D14*
X110157000Y-138058001D03*
%TD*%
D15*
%TO.C,PMODA1*%
X146638747Y-80848200D03*
D16*
X146638747Y-78308200D03*
X149178747Y-80848200D03*
X149178747Y-78308200D03*
X151718747Y-80848200D03*
X151718747Y-78308200D03*
X154258747Y-80848200D03*
X154258747Y-78308200D03*
X156798747Y-80848200D03*
X156798747Y-78308200D03*
X159338747Y-80848200D03*
X159338747Y-78308200D03*
%TD*%
D15*
%TO.C,J2J1*%
X164849277Y-89854532D03*
D16*
X164849277Y-92394532D03*
X162309277Y-89854532D03*
X162309277Y-92394532D03*
X159769277Y-89854532D03*
X159769277Y-92394532D03*
X157229277Y-89854532D03*
X157229277Y-92394532D03*
X154689277Y-89854532D03*
X154689277Y-92394532D03*
X152149277Y-89854532D03*
X152149277Y-92394532D03*
X149609277Y-89854532D03*
X149609277Y-92394532D03*
X147069277Y-89854532D03*
X147069277Y-92394532D03*
%TD*%
D15*
%TO.C,PMODB1*%
X169498747Y-80848200D03*
D16*
X169498747Y-78308200D03*
X172038747Y-80848200D03*
X172038747Y-78308200D03*
X174578747Y-80848200D03*
X174578747Y-78308200D03*
X177118747Y-80848200D03*
X177118747Y-78308200D03*
X179658747Y-80848200D03*
X179658747Y-78308200D03*
X182198747Y-80848200D03*
X182198747Y-78308200D03*
%TD*%
D17*
%TO.C,J6*%
X195065000Y-137625600D03*
D18*
X197065000Y-137625600D03*
X195065000Y-135625600D03*
X197065000Y-135625600D03*
X195065000Y-133625600D03*
X197065000Y-133625600D03*
X195065000Y-131625600D03*
X197065000Y-131625600D03*
X195065000Y-129625600D03*
X197065000Y-129625600D03*
X195065000Y-127625600D03*
X197065000Y-127625600D03*
X195065000Y-125625600D03*
X197065000Y-125625600D03*
X195065000Y-123625600D03*
X197065000Y-123625600D03*
X195065000Y-121625600D03*
X197065000Y-121625600D03*
X195065000Y-119625600D03*
X197065000Y-119625600D03*
%TD*%
D15*
%TO.C,J8*%
X133353277Y-135574532D03*
D16*
X133353277Y-138114532D03*
X130813277Y-135574532D03*
X130813277Y-138114532D03*
X128273277Y-135574532D03*
X128273277Y-138114532D03*
X125733277Y-135574532D03*
X125733277Y-138114532D03*
X123193277Y-135574532D03*
X123193277Y-138114532D03*
X120653277Y-135574532D03*
X120653277Y-138114532D03*
%TD*%
D17*
%TO.C,J5*%
X195065000Y-114079800D03*
D18*
X197065000Y-114079800D03*
X195065000Y-112079800D03*
X197065000Y-112079800D03*
X195065000Y-110079800D03*
X197065000Y-110079800D03*
X195065000Y-108079800D03*
X197065000Y-108079800D03*
X195065000Y-106079800D03*
X197065000Y-106079800D03*
X195065000Y-104079800D03*
X197065000Y-104079800D03*
X195065000Y-102079800D03*
X197065000Y-102079800D03*
X195065000Y-100079800D03*
X197065000Y-100079800D03*
X195065000Y-98079800D03*
X197065000Y-98079800D03*
X195065000Y-96079800D03*
X197065000Y-96079800D03*
%TD*%
D15*
%TO.C,J1*%
X186693277Y-89854532D03*
D16*
X186693277Y-92394532D03*
X184153277Y-89854532D03*
X184153277Y-92394532D03*
X181613277Y-89854532D03*
X181613277Y-92394532D03*
X179073277Y-89854532D03*
X179073277Y-92394532D03*
X176533277Y-89854532D03*
X176533277Y-92394532D03*
X173993277Y-89854532D03*
X173993277Y-92394532D03*
X171453277Y-89854532D03*
X171453277Y-92394532D03*
X168913277Y-89854532D03*
X168913277Y-92394532D03*
%TD*%
D19*
%TO.C,HDMI2*%
X102424343Y-78727399D03*
X116824344Y-78727399D03*
D20*
X102424343Y-72827401D03*
X116824344Y-72827401D03*
%TD*%
D17*
%TO.C,J4*%
X195065000Y-90534000D03*
D18*
X197065000Y-90534000D03*
X195065000Y-88534000D03*
X197065000Y-88534000D03*
X195065000Y-86534000D03*
X197065000Y-86534000D03*
X195065000Y-84534000D03*
X197065000Y-84534000D03*
X195065000Y-82534000D03*
X197065000Y-82534000D03*
X195065000Y-80534000D03*
X197065000Y-80534000D03*
X195065000Y-78534000D03*
X197065000Y-78534000D03*
X195065000Y-76534000D03*
X197065000Y-76534000D03*
X195065000Y-74534000D03*
X197065000Y-74534000D03*
X195065000Y-72534000D03*
X197065000Y-72534000D03*
%TD*%
D19*
%TO.C,HDMI1*%
X123424351Y-78727399D03*
X137824352Y-78727399D03*
D20*
X123424351Y-72827401D03*
X137824352Y-72827401D03*
%TD*%
D15*
%TO.C,J2*%
X186693277Y-135574532D03*
D16*
X186693277Y-138114532D03*
X184153277Y-135574532D03*
X184153277Y-138114532D03*
X181613277Y-135574532D03*
X181613277Y-138114532D03*
X179073277Y-135574532D03*
X179073277Y-138114532D03*
X176533277Y-135574532D03*
X176533277Y-138114532D03*
X173993277Y-135574532D03*
X173993277Y-138114532D03*
%TD*%
D15*
%TO.C,J3*%
X151133277Y-138114532D03*
D16*
X153673277Y-138114532D03*
X156213277Y-138114532D03*
X158753277Y-138114532D03*
X161293277Y-138114532D03*
X163833277Y-138114532D03*
X166373277Y-138114532D03*
X168913277Y-138114532D03*
%TD*%
M02*
