M48
; DRILL file {KiCad (6.0.6)} date Tue 23 Aug 2022 11:43:23 PM KST
; FORMAT={-:-/ absolute / inch / decimal}
; #@! TF.CreationDate,2022-08-23T23:43:23+09:00
; #@! TF.GenerationSoftware,Kicad,Pcbnew,(6.0.6)
; #@! TF.FileFunction,Plated,1,2,PTH
FMAT,2
INCH
; #@! TA.AperFunction,Plated,PTH,ViaDrill
T1C0.0119
; #@! TA.AperFunction,Plated,PTH,ComponentDrill
T2C0.0315
; #@! TA.AperFunction,Plated,PTH,ComponentDrill
T3C0.0354
; #@! TA.AperFunction,Plated,PTH,ComponentDrill
T4C0.0394
; #@! TA.AperFunction,Plated,PTH,ComponentDrill
T5C0.0472
%
G90
G05
T1
X4.105Y-3.305
X4.115Y-3.505
X4.115Y-3.62
X4.115Y-3.805
X4.115Y-4.165
X4.115Y-4.51
X4.115Y-4.865
X4.115Y-5.145
X4.12Y-5.43
X4.165Y-2.805
X4.245Y-3.305
X4.265Y-3.415
X4.3651Y-4.4699
X4.39Y-3.305
X4.415Y-3.805
X4.475Y-2.81
X4.565Y-4.54
X4.59Y-4.5
X4.595Y-5.18
X4.64Y-3.565
X4.705Y-4.675
X4.775Y-3.925
X4.895Y-4.305
X4.913Y-3.2532
X5.0Y-2.82
X5.015Y-3.25
X5.095Y-3.25
X5.145Y-4.045
X5.185Y-3.43
X5.19Y-3.355
X5.195Y-4.605
X5.24Y-4.405
X5.255Y-3.245
X5.265Y-2.82
X5.325Y-4.49
X5.335Y-5.165
X5.38Y-5.235
X5.38Y-5.265
X5.385Y-3.33
X5.465Y-4.345
X5.48Y-3.84
X5.51Y-3.405
X5.58Y-4.235
X5.595Y-3.135
X5.66Y-4.805
X5.695Y-4.13
X5.745Y-3.855
X5.75Y-3.405
X5.8Y-4.95
X5.8Y-5.1
X5.835Y-3.995
X6.075Y-2.98
X6.25Y-4.26
X6.48Y-3.14
X6.49Y-3.995
X6.605Y-3.895
X6.705Y-3.78
X6.79Y-3.735
X6.89Y-5.12
X7.03Y-5.055
X7.0576Y-5.22
X7.08Y-3.9
X7.0823Y-5.22
X7.1Y-4.945
X7.17Y-3.99
X7.185Y-2.805
X7.1926Y-4.96
X7.205Y-5.1285
X7.205Y-5.19
X7.2155Y-3.8113
X7.2173Y-4.96
X7.235Y-5.08
X7.29Y-3.08
X7.2927Y-5.13
X7.307Y-3.1806
X7.3076Y-4.64
X7.31Y-4.255
X7.3174Y-5.13
X7.3245Y-3.1632
X7.3323Y-4.64
X7.345Y-3.315
X7.345Y-4.882
X7.345Y-4.935
X7.345Y-5.015
X7.3677Y-4.245
X7.39Y-3.78
X7.3923Y-4.245
X7.425Y-3.89
X7.43Y-3.17
X7.43Y-3.225
X7.43Y-3.97
X7.4577Y-3.745
X7.47Y-4.2685
X7.47Y-4.3265
X7.47Y-4.71
X7.47Y-4.783
X7.47Y-5.0385
X7.47Y-5.1194
X7.4823Y-3.745
X7.5Y-3.08
X7.51Y-3.895
X7.515Y-3.995
X7.515Y-4.955
X7.525Y-3.84
X7.525Y-4.795
X7.53Y-5.03
X7.533Y-3.658
X7.533Y-3.716
X7.535Y-5.26
X7.535Y-5.46
X7.56Y-4.14
X7.565Y-5.175
X7.57Y-4.05
X7.5704Y-3.3201
X7.575Y-3.43
X7.58Y-2.805
X7.585Y-3.2
X7.59Y-4.24
X7.595Y-5.06
X7.605Y-3.765
X7.61Y-3.89
X7.61Y-3.995
X7.61Y-4.64
X7.625Y-4.26
X7.63Y-4.13
X7.74Y-4.57
X7.745Y-3.665
T2
X7.6797Y-2.8557
X7.6797Y-2.9344
X7.6797Y-3.0131
X7.6797Y-3.0919
X7.6797Y-3.1706
X7.6797Y-3.2494
X7.6797Y-3.3281
X7.6797Y-3.4069
X7.6797Y-3.4856
X7.6797Y-3.5643
X7.6797Y-3.7827
X7.6797Y-3.8614
X7.6797Y-3.9401
X7.6797Y-4.0189
X7.6797Y-4.0976
X7.6797Y-4.1764
X7.6797Y-4.2551
X7.6797Y-4.3339
X7.6797Y-4.4126
X7.6797Y-4.4913
X7.6797Y-4.7097
X7.6797Y-4.7884
X7.6797Y-4.8671
X7.6797Y-4.9459
X7.6797Y-5.0246
X7.6797Y-5.1034
X7.6797Y-5.1821
X7.6797Y-5.2609
X7.6797Y-5.3396
X7.6797Y-5.4183
X7.7585Y-2.8557
X7.7585Y-2.9344
X7.7585Y-3.0131
X7.7585Y-3.0919
X7.7585Y-3.1706
X7.7585Y-3.2494
X7.7585Y-3.3281
X7.7585Y-3.4069
X7.7585Y-3.4856
X7.7585Y-3.5643
X7.7585Y-3.7827
X7.7585Y-3.8614
X7.7585Y-3.9401
X7.7585Y-4.0189
X7.7585Y-4.0976
X7.7585Y-4.1764
X7.7585Y-4.2551
X7.7585Y-4.3339
X7.7585Y-4.4126
X7.7585Y-4.4913
X7.7585Y-4.7097
X7.7585Y-4.7884
X7.7585Y-4.8671
X7.7585Y-4.9459
X7.7585Y-5.0246
X7.7585Y-5.1034
X7.7585Y-5.1821
X7.7585Y-5.2609
X7.7585Y-5.3396
X7.7585Y-5.4183
T3
X4.7501Y-5.3376
X4.7501Y-5.4376
X4.8501Y-5.3376
X4.8501Y-5.4376
X4.9501Y-5.3376
X4.9501Y-5.4376
X5.0501Y-5.3376
X5.0501Y-5.4376
X5.1501Y-5.3376
X5.1501Y-5.4376
X5.2501Y-5.3376
X5.2501Y-5.4376
X5.7732Y-3.083
X5.7732Y-3.183
X5.7901Y-3.5376
X5.7901Y-3.6376
X5.8732Y-3.083
X5.8732Y-3.183
X5.8901Y-3.5376
X5.8901Y-3.6376
X5.9501Y-5.4376
X5.9732Y-3.083
X5.9732Y-3.183
X5.9901Y-3.5376
X5.9901Y-3.6376
X6.0501Y-5.4376
X6.0732Y-3.083
X6.0732Y-3.183
X6.0901Y-3.5376
X6.0901Y-3.6376
X6.1501Y-5.4376
X6.1732Y-3.083
X6.1732Y-3.183
X6.1901Y-3.5376
X6.1901Y-3.6376
X6.2501Y-5.4376
X6.2732Y-3.083
X6.2732Y-3.183
X6.2901Y-3.5376
X6.2901Y-3.6376
X6.3501Y-5.4376
X6.3901Y-3.5376
X6.3901Y-3.6376
X6.4501Y-5.4376
X6.4901Y-3.5376
X6.4901Y-3.6376
X6.5501Y-5.4376
X6.6501Y-3.5376
X6.6501Y-3.6376
X6.6501Y-5.4376
X6.6732Y-3.083
X6.6732Y-3.183
X6.7501Y-3.5376
X6.7501Y-3.6376
X6.7732Y-3.083
X6.7732Y-3.183
X6.8501Y-3.5376
X6.8501Y-3.6376
X6.8501Y-5.3376
X6.8501Y-5.4376
X6.8732Y-3.083
X6.8732Y-3.183
X6.9501Y-3.5376
X6.9501Y-3.6376
X6.9501Y-5.3376
X6.9501Y-5.4376
X6.9732Y-3.083
X6.9732Y-3.183
X7.0501Y-3.5376
X7.0501Y-3.6376
X7.0501Y-5.3376
X7.0501Y-5.4376
X7.0732Y-3.083
X7.0732Y-3.183
X7.1501Y-3.5376
X7.1501Y-3.6376
X7.1501Y-5.3376
X7.1501Y-5.4376
X7.1732Y-3.083
X7.1732Y-3.183
X7.2501Y-3.5376
X7.2501Y-3.6376
X7.2501Y-5.3376
X7.2501Y-5.4376
X7.3501Y-3.5376
X7.3501Y-3.6376
X7.3501Y-5.3376
X7.3501Y-5.4376
T4
X5.4501Y-5.4376
X5.5501Y-5.4376
X5.6501Y-5.4376
X5.7501Y-5.4376
T2
G00X4.2267Y-5.2031
M15
G01X4.2267Y-5.2897
M16
G05
G00X4.2936Y-5.4354
M15
G01X4.3802Y-5.4354
M16
G05
G00X4.455Y-5.1952
M15
G01X4.455Y-5.2976
M16
G05
T5
G00X4.0325Y-2.8515
M15
G01X4.0325Y-2.883
M16
G05
G00X4.0325Y-3.0759
M15
G01X4.0325Y-3.1231
M16
G05
G00X4.5994Y-2.8515
M15
G01X4.5994Y-2.883
M16
G05
G00X4.5994Y-3.1231
M15
G01X4.5994Y-3.0759
M16
G05
G00X4.8592Y-2.8515
M15
G01X4.8592Y-2.883
M16
G05
G00X4.8592Y-3.0759
M15
G01X4.8592Y-3.1231
M16
G05
G00X5.4262Y-2.8515
M15
G01X5.4262Y-2.883
M16
G05
G00X5.4262Y-3.1231
M15
G01X5.4262Y-3.0759
M16
G05
T0
M30
